<svg xmlns="http://www.w3.org/2000/svg" width="155" height="155" viewBox="0 0 155 155">
  <defs>
    <style>
      .cls-1 {
        fill: #036;
        fill-rule: evenodd;
      }
    </style>
  </defs>
  <path id="Forma_1" data-name="Forma 1" class="cls-1" d="M859.967,3712.25a2.685,2.685,0,0,0-.139-0.69,2.327,2.327,0,0,0-.484-0.82,1.76,1.76,0,0,0-.146-0.18c-0.017-.02-0.026-0.04-0.044-0.06l-27.68-25.16A5.182,5.182,0,0,0,828,3684H737a5.188,5.188,0,0,0-3.477,1.34l-27.677,25.16c-0.017.02-.027,0.04-0.044,0.06a1.521,1.521,0,0,0-.145.18,2.629,2.629,0,0,0-.379.56c-0.04.09-.075,0.17-0.105,0.26a2.605,2.605,0,0,0-.14.69c0,0.06-.032.11-0.032,0.17V3823.5a5.18,5.18,0,0,0,5.166,5.17v5.16a5.176,5.176,0,0,0,5.167,5.17h25.833a5.176,5.176,0,0,0,5.167-5.17v-5.16h72.333v5.16a5.175,5.175,0,0,0,5.167,5.17h25.833a5.175,5.175,0,0,0,5.167-5.17v-5.16A5.18,5.18,0,0,0,860,3823.5V3712.42C860,3712.36,859.97,3712.31,859.967,3712.25ZM737,3689.17h91l22.732,20.66H714.266Zm-21.666,144.66v-5.17h25.833l0,5.17H715.333Zm108.5,0v-5.17h25.833l0,5.17H823.833Zm31-10.33H710.166V3715H854.833v108.5h0Zm-136.916-5.17H847.083a2.571,2.571,0,0,0,2.583-2.58v-93a2.571,2.571,0,0,0-2.583-2.58H717.916a2.571,2.571,0,0,0-2.583,2.58v93A2.571,2.571,0,0,0,717.916,3818.33Zm2.583-93h124v87.84h-124v-87.84Zm58.79,41.87a8.346,8.346,0,0,0,1.919-5.28v-0.84a8.7,8.7,0,0,0-7.75-8.51v-2.7a2.584,2.584,0,0,0-5.167,0v2.59h-5.166v-2.59a2.584,2.584,0,0,0-5.167,0v2.59h-2.584a2.58,2.58,0,1,0,0,5.16h16.931a3.61,3.61,0,0,1,3.736,3.46v0.84a3.6,3.6,0,0,1-3.736,3.45h-9.18a2.584,2.584,0,0,0-5.167,0v10.34a2.584,2.584,0,0,0,5.167,0v-5.17H773.3a5.147,5.147,0,0,1,5.327,4.93v0.48a5.132,5.132,0,0,1-5.327,4.92H755.374a2.585,2.585,0,0,0,0,5.17h2.583v2.58a2.584,2.584,0,1,0,5.168,0v-2.58h5.166v2.58a2.584,2.584,0,1,0,5.167,0v-2.59a10.3,10.3,0,0,0,10.333-10.08v-0.48A9.976,9.976,0,0,0,779.289,3767.2Zm26.322,6.23-5.194-.91c0.105-1.08.166-2.17,0.166-3.27s-0.061-2.19-.166-3.27l5.194-.92a2.547,2.547,0,0,0,1.667-1.06,2.575,2.575,0,0,0,.427-1.93,2.618,2.618,0,0,0-1.062-1.67,2.59,2.59,0,0,0-1.931-.42l-5.223.92a33.23,33.23,0,0,0-2.236-6.13l4.6-2.66a2.581,2.581,0,1,0-2.583-4.47l-4.58,2.64a33.861,33.861,0,0,0-4.2-5l3.4-4.06a2.584,2.584,0,1,0-3.96-3.32l-3.412,4.07a33.335,33.335,0,0,0-5.648-3.27l1.812-4.98a2.583,2.583,0,1,0-4.854-1.77l-1.81,4.98a32.663,32.663,0,0,0-6.432-1.13v-5.3a2.583,2.583,0,0,0-5.166,0v5.3a32.637,32.637,0,0,0-6.432,1.13l-1.81-4.98a2.583,2.583,0,1,0-4.854,1.77l1.811,4.98a33.335,33.335,0,0,0-5.648,3.27l-3.411-4.07a2.584,2.584,0,0,0-3.961,3.32l3.405,4.06a33.868,33.868,0,0,0-4.2,5l-4.579-2.64a2.582,2.582,0,1,0-2.584,4.47l4.6,2.66a32.825,32.825,0,0,0-2.236,6.13l-5.224-.92a2.579,2.579,0,0,0-.9,5.08l5.194,0.92c-0.105,1.08-.166,2.16-0.166,3.27s0.061,2.19.166,3.27l-5.194.91a2.585,2.585,0,0,0,.446,5.13,2.282,2.282,0,0,0,.452-0.04l5.224-.92a33.086,33.086,0,0,0,2.236,6.13l-4.6,2.66a2.582,2.582,0,1,0,2.584,4.47l4.579-2.64a33.85,33.85,0,0,0,4.2,4.99l-3.405,4.06a2.584,2.584,0,0,0,3.961,3.32l3.411-4.06a34.022,34.022,0,0,0,5.648,3.27l-1.811,4.98a2.582,2.582,0,1,0,4.854,1.76l1.81-4.97a34.172,34.172,0,0,0,6.432,1.13v5.3a2.583,2.583,0,0,0,5.166,0v-5.3a34.2,34.2,0,0,0,6.432-1.13l1.81,4.97a2.581,2.581,0,1,0,4.853-1.76l-1.811-4.98a33.981,33.981,0,0,0,5.648-3.27l3.412,4.06a2.584,2.584,0,1,0,3.96-3.32l-3.4-4.06a33.782,33.782,0,0,0,4.2-4.99l4.58,2.64a2.581,2.581,0,1,0,2.583-4.47l-4.6-2.66a33.23,33.23,0,0,0,2.236-6.13l5.223,0.92a2.3,2.3,0,0,0,.452.04A2.585,2.585,0,0,0,805.611,3773.43ZM767,3797.67a28.42,28.42,0,1,1,28.417-28.42A28.422,28.422,0,0,1,767,3797.67ZM826.416,3746a12.87,12.87,0,0,0-7.75,23.18v23.32a7.75,7.75,0,0,0,15.5,0v-23.32A12.87,12.87,0,0,0,826.416,3746ZM829,3792.5a2.583,2.583,0,0,1-5.166,0v-20.93a12.845,12.845,0,0,0,5.167,0v20.93h0Zm-2.583-25.83a7.75,7.75,0,1,1,7.75-7.75A7.749,7.749,0,0,1,826.416,3766.67Z" transform="translate(-705 -3684)"/>
</svg>
