<svg xmlns="http://www.w3.org/2000/svg" width="150" height="150" viewBox="0 0 150 150">
  <metadata><?xpacket begin="﻿" id="W5M0MpCehiHzreSzNTczkc9d"?>
<x:xmpmeta xmlns:x="adobe:ns:meta/" x:xmptk="Adobe XMP Core 5.6-c138 79.159824, 2016/09/14-01:09:01        ">
   <rdf:RDF xmlns:rdf="http://www.w3.org/1999/02/22-rdf-syntax-ns#">
      <rdf:Description rdf:about=""/>
   </rdf:RDF>
</x:xmpmeta>
                                                                                                    
                                                                                                    
                                                                                                    
                                                                                                    
                                                                                                    
                                                                                                    
                                                                                                    
                                                                                                    
                                                                                                    
                                                                                                    
                                                                                                    
                                                                                                    
                                                                                                    
                                                                                                    
                                                                                                    
                                                                                                    
                                                                                                    
                                                                                                    
                                                                                                    
                                                                                                    
                           
<?xpacket end="w"?></metadata>
<defs>
    <style>
      .cls-1 {
        fill: #036;
        fill-rule: evenodd;
      }
    </style>
  </defs>
  <path id="Forma_1" data-name="Forma 1" class="cls-1" d="M763.592,2966.09a13.987,13.987,0,0,1-2-13.09,7.487,7.487,0,0,0-2.589-1.54v-2.96h-5v2.5h-5v-2.5h-5v2.5h-2.5v5H744v15h-2.5v5H744v2.5h5V2976h5v2.5h5v-2.96A7.428,7.428,0,0,0,763.592,2966.09ZM756.5,2971H749v-5h7.5A2.5,2.5,0,0,1,756.5,2971Zm0-10H749v-5h7.5A2.5,2.5,0,0,1,756.5,2961Zm-5-25a27.5,27.5,0,1,0,27.5,27.5A27.5,27.5,0,0,0,751.5,2936Zm0,50a22.5,22.5,0,1,1,22.5-22.5A22.5,22.5,0,0,1,751.5,2986Zm0,27.5A27.5,27.5,0,1,0,779,3041,27.5,27.5,0,0,0,751.5,3013.5Zm0,50A22.5,22.5,0,1,1,774,3041,22.5,22.5,0,0,1,751.5,3063.5Zm17-21.5-15-20a2.583,2.583,0,0,0-3.645-.35,2.209,2.209,0,0,0-.354.35l-15,20a2.5,2.5,0,0,0,.1,3.13l15,17.5a2.506,2.506,0,0,0,3.525.27q0.146-.135.27-0.27l15-17.5A2.5,2.5,0,0,0,768.5,3042Zm-17,15.16-11.8-13.77,11.8-15.72,11.8,15.72Zm3.882-15.9-3.882,1.94-3.883-1.94-2.235,4.48,5,2.5a2.51,2.51,0,0,0,2.235,0l5-2.5ZM836.5,3031a27.5,27.5,0,1,0,27.5,27.5A27.5,27.5,0,0,0,836.5,3031Zm0,50a22.5,22.5,0,1,1,22.5-22.5A22.5,22.5,0,0,1,836.5,3081ZM814,2961a27.5,27.5,0,1,0,27.5,27.5A27.5,27.5,0,0,0,814,2961Zm0,50a22.5,22.5,0,1,1,22.5-22.5A22.5,22.5,0,0,1,814,3011Zm31.249,35H836.5a2.5,2.5,0,0,0-2.5,2.5v25h5v-10h6.249A8.75,8.75,0,0,0,845.249,3046Zm0,12.5H839V3051h6.249A3.75,3.75,0,1,1,845.249,3058.5ZM826.5,3046h5v27.5h-5V3046ZM814,2976h-7.5a2.5,2.5,0,0,0-2.5,2.5v20a2.5,2.5,0,0,0,2.5,2.5H814A12.5,12.5,0,0,0,814,2976Zm0,20h-5v-5h7.5v-5H809v-5h5A7.5,7.5,0,0,1,814,2996Zm45-57.5h5V2956h-5v-17.5ZM714,2936h5v7.5h-5V2936Zm132.5,20h5v22.5h-5V2956ZM714,2986h5v7.5h-5V2986Zm7.5,10h5v5h-5v-5Zm0,10h5v10h-5v-10Zm35,65h5v5h-5v-5Zm0,10h5v5h-5v-5Zm45-5h5v5h-5v-5Zm-30-87.5h5v5h-5v-5Zm0,10h5v10h-5v-10Zm75-52.5h5v5h-5v-5ZM789,3043.5h5V3066h-5v-22.5ZM804,2936h5v17.5h-5V2936Zm-15,97.5h5v5h-5v-5Zm70-25h5V3031h-5v-22.5Zm0-10h5v5h-5v-5Zm-145,65h5V3086h-5v-22.5Zm0-10h5v5h-5v-5Z" transform="translate(-714 -2936)"/>
</svg>
