<svg xmlns="http://www.w3.org/2000/svg" width="26" height="26">
    <path fill="#FFF" fill-rule="evenodd" d="M12.999 0c-7.168 0-13 5.832-13 12.999 0 7.168 5.832 13 13 13s13-5.832 13-13c0-7.167-5.832-12.999-13-12.999zm9.204 6.342c-1.401.555-2.84.996-4.317 1.285a18.383 18.383 0 0 0-2.992-5.832 11.376 11.376 0 0 1 7.309 4.547zm-5.524 10.2a27.076 27.076 0 0 0-7.36 0 16.868 16.868 0 0 1-.004-7.074c1.213.166 2.438.281 3.684.281 1.247 0 2.47-.115 3.683-.281a16.901 16.901 0 0 1-.003 7.074zm-.421-8.663c-2.163.28-4.356.28-6.519 0a16.763 16.763 0 0 1 3.26-5.825 16.76 16.76 0 0 1 3.259 5.825zm-5.157-6.084a18.374 18.374 0 0 0-2.989 5.832 24.524 24.524 0 0 1-4.317-1.285 11.374 11.374 0 0 1 7.306-4.547zM1.624 12.999c0-1.894.473-3.678 1.295-5.251a26.217 26.217 0 0 0 4.788 1.47 18.504 18.504 0 0 0 .001 7.576 25.923 25.923 0 0 0-4.789 1.462 11.33 11.33 0 0 1-1.295-5.257zm2.171 6.658a24.44 24.44 0 0 1 4.317-1.285 18.38 18.38 0 0 0 2.991 5.832 11.377 11.377 0 0 1-7.308-4.547zm5.947-1.537c2.16-.28 4.353-.28 6.516 0a16.776 16.776 0 0 1-3.259 5.825 16.722 16.722 0 0 1-3.257-5.825zm5.152 6.084a18.383 18.383 0 0 0 2.992-5.832c1.475.289 2.916.731 4.317 1.285a11.38 11.38 0 0 1-7.309 4.547zm3.395-7.413a18.46 18.46 0 0 0 .001-7.574 26.129 26.129 0 0 0 4.789-1.471 11.308 11.308 0 0 1 0 10.507 26.219 26.219 0 0 0-4.79-1.462z"/>
</svg>
