<svg xmlns="http://www.w3.org/2000/svg" width="66" height="69.97" viewBox="0 0 66 69.97">
  <defs>
    <style>
      .cls-1 {
        fill: #fff;
        fill-rule: evenodd;
      }
    </style>
  </defs>
  <path id="logo_icon_копия" data-name="logo icon копия" class="cls-1" d="M198.108,1183.95c-11.152-9.9-31.879-4.49-46.3,12.11s-17.067,38.07-5.917,47.98,31.879,4.49,46.3-12.1S209.258,1193.86,198.108,1183.95Zm-17.316,36.51c-8.525,9.84-20.566,13.28-26.9,7.68s-4.551-18.13,3.974-27.98,21.86-12.84,28.191-7.24S189.318,1210.62,180.792,1220.46Zm-7.888-17.55c-2.492-1.82-6.613-.36-9.2,3.27s-2.661,8.04-.166,9.86,6.613,0.36,9.2-3.27S175.4,1204.72,172.9,1202.91Z" transform="translate(-139 -1179)"/>
</svg>
