<svg xmlns="http://www.w3.org/2000/svg" xmlns:xlink="http://www.w3.org/1999/xlink" width="47" height="41" viewBox="0 0 47 41">
  <defs>
    <style>
      .cls-1 {
        fill-rule: evenodd;
        filter: url(#filter);
      }
    </style>
    <filter id="filter" x="862" y="12882" width="47" height="41" filterUnits="userSpaceOnUse">
      <feFlood result="flood" flood-color="#08c"/>
      <feComposite result="composite" operator="in" in2="SourceGraphic"/>
      <feBlend result="blend" in2="SourceGraphic"/>
    </filter>
  </defs>
  <path id="tele" class="cls-1" d="M862.83,12901.7l10.83,4,4.192,13.5a1.244,1.244,0,0,0,2.024.6l6.037-4.9a1.956,1.956,0,0,1,2.195-.1l10.888,8a1.308,1.308,0,0,0,2-.8l7.976-38.5a1.238,1.238,0,0,0-1.709-1.4l-44.445,17.2A1.286,1.286,0,0,0,862.83,12901.7Zm14.346,1.9,21.165-13.1a0.377,0.377,0,0,1,.446.6l-17.468,16.2a3.878,3.878,0,0,0-1.122,2.2l-0.6,4.4a0.545,0.545,0,0,1-1.069.1l-2.288-8A2.091,2.091,0,0,1,877.176,12903.6Z" transform="translate(-862 -12882)"/>
</svg>
